<svg xmlns="http://www.w3.org/2000/svg" viewBox="0 0 1300 413.473">
	<path fill="#c93d4b" d="M206.736 0C92.741 0 0 92.741 0 206.736c0 113.996 92.741 206.737 206.736 206.737 113.996 0 206.737-92.74 206.737-206.737C413.473 92.741 320.733 0 206.736 0zM41.554 206.736c0-44.122 17.182-85.602 48.381-116.8 31.199-31.2 72.68-48.382 116.801-48.382 1.687 0 3.369.034 5.047.084 32.78 3.01 58.196 29.674 58.196 62.899 0 11.546-3.099 22.351-8.528 31.674v.026c-8.21 14.116-21.743 24.762-37.844 29.185a62.867 62.867 0 01-16.818 2.278h-.053a62.196 62.196 0 01-16.87-2.305c-16.048-4.449-29.555-15.095-37.712-29.184h-.133c-17.002 0-33.024 4.158-47.113 11.52a.633.633 0 00-.291.159c-23.412 12.262-41.447 33.343-49.763 58.846-3.257 9.958-5.005 20.631-5.005 31.674 0 15.364 3.397 29.942 9.471 43.02-11.615-22.865-17.766-48.305-17.766-74.694zm281.984 116.801c-31.2 31.2-72.68 48.382-116.802 48.382s-85.602-17.182-116.8-48.382c-11.661-11.66-21.363-24.759-28.942-38.894-3.774-8.092-5.875-17.11-5.875-26.635 0-21.107 10.354-39.804 26.271-51.272a62.642 62.642 0 0136.84-11.918h.052c13.798 0 26.536 4.423 36.918 11.918a58.779 58.779 0 017.23 6.09 61.324 61.324 0 0110.513 13.508 61.762 61.762 0 016.515 15.784c1.325 5.059 2.014 10.408 2.014 15.89 0 11.547-3.099 22.352-8.502 31.648 0 .053.027.08.053.106a102.619 102.619 0 0033.713 35.037c15.81 10.038 34.561 15.838 54.662 15.838 34.49 0 65.015-17.106 83.496-43.282a166.754 166.754 0 01-21.356 26.182zm23.205-29.043c-11.425 16.177-30.272 26.73-51.578 26.73-23.332 0-43.725-12.632-54.636-31.462l-.052-.053c-5.403-9.296-8.502-20.128-8.502-31.674a64.42 64.42 0 012.013-15.917 62.44 62.44 0 016.541-15.81 62.1 62.1 0 0110.54-13.481 57.341 57.341 0 017.284-6.09c10.355-7.496 23.067-11.866 36.812-11.866.026-.026.052-.053.052-.079 8.078-13.903 12.951-29.847 13.64-46.902l.026-.344c.053-1.324.08-2.648.08-3.972 0-52.981-40.298-96.497-91.886-101.691 40.23 2.468 77.712 19.303 106.461 48.052 31.2 31.199 48.38 72.68 48.38 116.801 0 31.532-8.78 61.713-25.175 87.758zM1236.448 116.29h-72.607l-47.11 137.72-70.084.313V116.29h-55.103v78.334h-73.846v43.076h31.67c-9.167 11.44-23.227 18.747-39.01 18.747-18.988 0-35.53-10.615-43.972-26.225a49.748 49.748 0 01-5.996-23.744c0-9.063 2.412-17.575 6.651-24.915 8.615-14.99 24.777-25.053 43.317-25.053 18.402 0 34.495 9.96 43.145 24.777l2.653-3.894 28.741-42.11a103.022 103.022 0 00-24.564-18.993H860.329c-.368.201-.745.388-1.11.59-24.089 13.853-42.077 37.08-48.97 64.683a102.97 102.97 0 00-3.066 25.018c0 1.105.06 2.195.094 3.291-12.228-34.806-24.872-70.793-32.88-93.582H701.79l-55.393 161.94-66.122-71.649 83.557-90.29h-67.9l-49.83 59.069v-59.07H491v180.894h55.103v-57.658c9.457 10.968 33.677 39.09 49.667 57.658h111.663l5.216-21.708h53.474l4.649 21.708h67.182l-10.054-28.614a103.779 103.779 0 0033.143 28.614h98.66a103.652 103.652 0 0031.842-26.932v26.932h177.939l5.217-21.708h53.473l4.649 21.708H1300c-16.108-45.818-47.296-134.625-63.552-180.894zM722.88 230.942l16.007-71.414 16.007 71.414H722.88zm462.052 0l16.007-71.414 16.007 71.414h-32.014z"/>
</svg>
