<svg xmlns="http://www.w3.org/2000/svg" viewBox="0 0 1300 413.473">
	<path fill="#f2f7f2" d="M206.736 0C92.741 0 0 92.742 0 206.736c0 113.996 92.74 206.737 206.736 206.737s206.737-92.74 206.737-206.737C413.473 92.742 320.733 0 206.736 0zM41.555 206.736c0-44.121 17.181-85.602 48.381-116.8 31.199-31.2 72.678-48.382 116.8-48.382 1.688 0 3.368.034 5.048.084 32.779 3.01 58.195 29.674 58.195 62.899 0 11.546-3.098 22.352-8.527 31.674v.027c-8.211 14.116-21.744 24.761-37.845 29.184a62.862 62.862 0 01-16.817 2.278h-.054a62.241 62.241 0 01-16.87-2.304c-16.047-4.45-29.555-15.096-37.713-29.185h-.132c-17.002 0-33.025 4.158-47.113 11.52a.634.634 0 00-.29.159c-23.414 12.262-41.448 33.343-49.764 58.846-3.258 9.959-5.006 20.631-5.006 31.674 0 15.364 3.398 29.942 9.473 43.02-11.615-22.864-17.766-48.305-17.766-74.694zm281.982 116.801c-31.199 31.2-72.678 48.382-116.8 48.382s-85.602-17.181-116.8-48.382c-11.663-11.66-21.363-24.758-28.944-38.893-3.774-8.093-5.874-17.112-5.874-26.635 0-21.108 10.354-39.805 26.271-51.273a62.649 62.649 0 0136.84-11.917h.051c13.798 0 26.538 4.423 36.92 11.917a58.835 58.835 0 017.23 6.092 61.322 61.322 0 0110.512 13.506 61.854 61.854 0 016.516 15.785c1.323 5.058 2.013 10.407 2.013 15.89 0 11.546-3.1 22.351-8.502 31.647 0 .053.025.08.054.106a102.59 102.59 0 0033.712 35.038c15.811 10.037 34.562 15.837 54.662 15.837 34.49 0 65.016-17.105 83.495-43.28a166.572 166.572 0 01-21.356 26.18zm23.205-29.042c-11.423 16.176-30.272 26.73-51.577 26.73-23.331 0-43.726-12.633-54.635-31.463l-.053-.053c-5.403-9.296-8.501-20.128-8.501-31.674 0-5.482.714-10.832 2.013-15.916a62.425 62.425 0 016.54-15.811 62.042 62.042 0 0110.541-13.48 57.276 57.276 0 017.283-6.092c10.354-7.494 23.067-11.864 36.812-11.864.026-.027.053-.053.053-.08 8.076-13.903 12.95-29.846 13.637-46.902l.029-.344c.052-1.324.079-2.648.079-3.972 0-52.98-40.298-96.497-91.886-101.691 40.23 2.468 77.712 19.303 106.46 48.052 31.201 31.199 48.381 72.68 48.381 116.801 0 31.533-8.78 61.714-25.176 87.76zM1236.45 116.29h-72.608l-47.11 137.72-70.085.314V116.29h-55.103v78.334h-73.845v43.076h31.668c-9.165 11.44-23.225 18.747-39.009 18.747-18.987 0-35.53-10.614-43.971-26.225a49.735 49.735 0 01-5.997-23.743c0-9.064 2.413-17.576 6.652-24.916 8.615-14.99 24.777-25.053 43.316-25.053 18.404 0 34.495 9.96 43.145 24.777l2.653-3.893 28.741-42.112a102.994 102.994 0 00-24.564-18.992H860.329c-.368.201-.746.388-1.11.59-24.089 13.853-42.078 37.08-48.969 64.683a103.014 103.014 0 00-3.068 25.02c0 1.103.06 2.193.095 3.29-12.229-34.806-24.87-70.793-32.88-93.583H701.79l-55.392 161.94-66.124-71.648 83.557-90.292h-67.898l-49.83 59.07v-59.07H491v180.895h55.104v-57.658c9.457 10.968 33.678 39.09 49.666 57.658h111.663l5.216-21.708h53.473l4.65 21.708h67.18c-2.516-7.167-5.98-17.025-10.051-28.615a103.757 103.757 0 0033.143 28.615h98.66a103.647 103.647 0 0031.84-26.933v26.933h177.94l5.217-21.708h53.472l4.65 21.708H1300c-16.109-45.819-47.296-134.626-63.55-180.895zM722.88 230.943l16.006-71.415 16.008 71.415H722.88zm462.052 0l16.007-71.415 16.007 71.415h-32.014z"/>
</svg>
