<svg xmlns="http://www.w3.org/2000/svg" viewBox="0 0 1300 290.683">
	<path fill="#f2f7f2" d="M88.546 290.683V198.03c15.196 17.625 54.117 62.817 79.81 92.653H347.79l8.383-34.883H442.1l7.47 34.883h107.957L541.372 244.7a166.764 166.764 0 0053.258 45.982h158.54a166.551 166.551 0 0051.166-43.28v43.28h285.934l8.383-34.883h85.926l7.472 34.883H1300C1274.116 217.057 1223.999 74.35 1197.879 0h-116.676l-75.7 221.307-112.62.504V0h-88.547v125.876H685.672v69.22h50.89c-14.73 18.384-37.323 30.124-62.685 30.124-30.512 0-57.093-17.056-70.66-42.14-6.146-11.353-9.635-24.366-9.635-38.155 0-14.564 3.876-28.242 10.688-40.037C618.113 80.8 644.085 64.63 673.877 64.63c29.57 0 55.431 16.004 69.33 39.815l4.264-6.257 46.184-67.67C782.15 18.434 768.85 8.16 754.182 0H593.483c-.59.323-1.197.624-1.784.948-38.708 22.26-67.614 59.584-78.689 103.94a165.508 165.508 0 00-4.928 40.203c0 1.775.096 3.526.152 5.288C488.584 94.449 468.267 36.62 455.399 0H338.723l-89.011 260.225-106.255-115.134L277.727 0H168.619L88.546 94.92V0H0v290.683h88.546zm1052.27-221.2l25.722 114.758h-51.444l25.723-114.758zm-742.48 0L424.06 184.24h-51.444l25.721-114.758z"/>
</svg>
