
<svg xmlns="http://www.w3.org/2000/svg" viewBox="0 0 1300 413.473">
	<path fill="#13070c" d="M206.736 0C92.741 0 0 92.742 0 206.736c0 113.996 92.74 206.737 206.736 206.737s206.737-92.74 206.737-206.737C413.473 92.742 320.733 0 206.736 0zM41.553 206.736c0-44.121 17.183-85.602 48.382-116.8 31.198-31.2 72.68-48.382 116.801-48.382 1.687 0 3.368.034 5.046.084 32.779 3.01 58.197 29.674 58.197 62.899 0 11.546-3.1 22.352-8.529 31.674v.027c-8.21 14.116-21.742 24.761-37.845 29.184a62.862 62.862 0 01-16.817 2.278h-.052a62.233 62.233 0 01-16.87-2.304c-16.049-4.45-29.555-15.096-37.711-29.185h-.133c-17.003 0-33.025 4.158-47.116 11.52a.642.642 0 00-.29.159c-23.412 12.262-41.448 33.343-49.763 58.846-3.257 9.959-5.005 20.631-5.005 31.674 0 15.364 3.4 29.942 9.472 43.02-11.615-22.864-17.767-48.305-17.767-74.694zm281.985 116.801c-31.198 31.2-72.68 48.382-116.802 48.382s-85.603-17.181-116.801-48.382c-11.661-11.66-21.363-24.758-28.942-38.893-3.774-8.093-5.875-17.112-5.875-26.635 0-21.108 10.356-39.805 26.27-51.273a62.652 62.652 0 0136.84-11.917h.053c13.798 0 26.536 4.423 36.918 11.917a58.6 58.6 0 017.23 6.092 61.376 61.376 0 0110.514 13.506 61.737 61.737 0 016.514 15.785c1.325 5.058 2.013 10.407 2.013 15.89 0 11.546-3.098 22.351-8.501 31.647 0 .053.028.08.053.106a102.624 102.624 0 0033.714 35.038c15.811 10.037 34.56 15.837 54.66 15.837 34.493 0 65.016-17.105 83.499-43.28a166.838 166.838 0 01-21.357 26.18zm23.205-29.042c-11.426 16.176-30.27 26.73-51.578 26.73-23.333 0-43.724-12.633-54.635-31.463l-.054-.053c-5.402-9.296-8.502-20.128-8.502-31.674 0-5.482.716-10.832 2.013-15.916a62.43 62.43 0 016.543-15.811 62.083 62.083 0 0110.539-13.48 57.29 57.29 0 017.284-6.092c10.354-7.494 23.066-11.864 36.812-11.864.026-.027.052-.053.052-.08 8.079-13.903 12.95-29.846 13.64-46.902l.025-.344c.054-1.324.08-2.648.08-3.972 0-52.98-40.297-96.497-91.887-101.691 40.234 2.468 77.714 19.303 106.463 48.052 31.199 31.199 48.382 72.68 48.382 116.801 0 31.533-8.783 61.714-25.177 87.76zM1236.448 116.29h-72.608l-47.108 137.72-70.085.314V116.29h-55.102v78.334h-73.848v43.076h31.672c-9.167 11.44-23.227 18.747-39.01 18.747-18.99 0-35.529-10.614-43.974-26.225a49.77 49.77 0 01-5.995-23.743c0-9.064 2.412-17.576 6.652-24.916 8.615-14.99 24.775-25.053 43.316-25.053 18.402 0 34.495 9.96 43.145 24.777l2.654-3.893 28.74-42.112a103.057 103.057 0 00-24.564-18.992H860.329c-.37.201-.745.388-1.11.59-24.089 13.853-42.078 37.08-48.969 64.683-2 7.995-3.068 16.37-3.068 25.02 0 1.103.06 2.193.095 3.29l-32.878-93.583h-72.61l-55.392 161.94-66.123-71.648 83.558-90.292h-67.9L546.1 175.36v-59.07h-55.102v180.895h55.102v-57.658a201683.57 201683.57 0 0149.668 57.658h111.662l5.217-21.708h53.473l4.65 21.708h67.182c-2.518-7.167-5.98-17.025-10.053-28.615a103.784 103.784 0 0033.142 28.615h98.661a103.653 103.653 0 0031.842-26.933v26.933h177.939l5.216-21.708h53.472l4.65 21.708H1300c-16.107-45.819-47.296-134.626-63.552-180.895zM722.88 230.943l16.008-71.415 16.006 71.415H722.88zm462.052 0l16.006-71.415 16.008 71.415h-32.014z"/>
</svg>
