<svg xmlns="http://www.w3.org/2000/svg" viewBox="0 0 102.691 137.159">
	<path fill="#c93d4b" d="M51.346 0C23.033 0 0 23.033 0 51.346c0 28.312 23.033 51.345 51.346 51.345 28.312 0 51.345-23.033 51.345-51.345C102.691 23.033 79.658 0 51.346 0zM10.32 51.346c0-10.959 4.268-21.26 12.017-29.01 7.748-7.748 18.05-12.016 29.009-12.016.419 0 .836.009 1.253.021 8.141.748 14.454 7.37 14.454 15.622 0 2.868-.77 5.551-2.118 7.867v.006a15.714 15.714 0 01-13.576 7.814h-.013c-1.454 0-2.855-.197-4.19-.572a15.696 15.696 0 01-9.367-7.248h-.033a25.187 25.187 0 00-11.7 2.86.157.157 0 00-.073.04 25.424 25.424 0 00-12.36 14.616 25.285 25.285 0 00-1.242 7.866c0 3.816.843 7.437 2.352 10.685-2.885-5.679-4.413-11.998-4.413-18.551zm70.035 29.009c-7.749 7.748-18.051 12.016-29.01 12.016-10.958 0-21.26-4.268-29.008-12.016a41.169 41.169 0 01-7.188-9.66 15.602 15.602 0 01-1.46-6.615c0-5.243 2.572-9.886 6.525-12.734a15.558 15.558 0 019.15-2.96h.013c3.427 0 6.59 1.098 9.169 2.96.638.453 1.236.96 1.796 1.512a15.23 15.23 0 012.61 3.355 15.34 15.34 0 011.619 3.92c.329 1.256.5 2.585.5 3.947 0 2.867-.77 5.551-2.112 7.86a25.487 25.487 0 008.386 8.728A25.243 25.243 0 0064.923 84.6c8.565 0 16.147-4.248 20.737-10.75a41.415 41.415 0 01-5.304 6.504zm5.763-7.214a15.652 15.652 0 01-12.81 6.64 15.66 15.66 0 01-13.57-7.815l-.013-.013a15.613 15.613 0 01-2.111-7.867 16 16 0 01.5-3.953c.362-1.394.914-2.71 1.624-3.927a15.423 15.423 0 012.618-3.348 14.242 14.242 0 011.81-1.512 15.528 15.528 0 019.142-2.947c.006-.007.013-.013.013-.02a25.132 25.132 0 003.387-11.649l.007-.085c.013-.329.02-.658.02-.987 0-13.158-10.009-23.966-22.821-25.256 9.992.613 19.3 4.794 26.44 11.935 7.75 7.748 12.017 18.05 12.017 29.009 0 7.83-2.18 15.327-6.253 21.795zM93.71 114.681H84.69l-5.854 17.113-8.708.039v-17.152H63.28v9.734h-9.176v5.352h3.935a6.21 6.21 0 11.514-7.01l.33-.483 3.57-5.233a12.801 12.801 0 00-3.051-2.36H46.975l-.138.074a12.898 12.898 0 00-6.084 8.037 12.795 12.795 0 00-.381 3.109c0 .137.007.272.011.409l-4.085-11.629h-9.022l-6.883 20.122-8.216-8.902 10.382-11.22h-8.437l-6.191 7.34v-7.34H1.084v22.478H7.93v-7.165l6.171 7.165h13.875l.648-2.698h6.645l.577 2.698h8.348l-1.25-3.556a12.895 12.895 0 004.119 3.556h12.26a12.88 12.88 0 003.956-3.347v3.347h22.11l.648-2.698h6.644l.578 2.698h8.347l-7.896-22.478zm-63.814 14.247l1.99-8.874 1.988 8.874h-3.978zm57.413 0l1.99-8.874 1.988 8.874H87.31z"/>
</svg>
