<svg xmlns="http://www.w3.org/2000/svg" viewBox="0 0 300 300">
	<path fill="#f2f7f2" d="M150 0C67.29 0 0 67.29 0 150s67.29 150 150 150 150-67.29 150-150S232.71 0 150 0zm0 269.85c-32.013 0-62.11-12.466-84.746-35.104-8.461-8.46-15.5-17.964-21-28.22-2.738-5.871-4.262-12.415-4.262-19.325 0-15.315 7.513-28.88 19.061-37.201a45.453 45.453 0 0126.73-8.647h.038A45.585 45.585 0 01112.607 150a42.582 42.582 0 015.246 4.42 44.495 44.495 0 017.628 9.8 44.834 44.834 0 014.727 11.452 45.57 45.57 0 011.46 11.529c0 8.378-2.248 16.218-6.168 22.962 0 .039.02.058.039.077a74.453 74.453 0 0024.46 25.422c11.473 7.283 25.077 11.49 39.661 11.49 25.025 0 47.173-12.41 60.582-31.402a120.99 120.99 0 01-15.496 18.996C212.11 257.384 182.013 269.85 150 269.85zm0-239.7c1.224 0 2.443.024 3.661.06 23.784 2.185 42.225 21.53 42.225 45.638a45.486 45.486 0 01-6.187 22.981v.02c-5.957 10.241-15.776 17.966-27.459 21.175a45.618 45.618 0 01-12.202 1.653H150c-4.247 0-8.34-.577-12.24-1.672-11.645-3.228-21.445-10.953-27.363-21.176h-.096c-12.336 0-23.962 3.017-34.184 8.36a.46.46 0 00-.212.114C58.92 116.2 45.833 131.496 39.8 150c-2.364 7.225-3.632 14.969-3.632 22.982 0 11.147 2.466 21.724 6.872 31.213-8.427-16.59-12.89-35.048-12.89-54.195 0-32.013 12.466-62.11 35.104-84.746C87.89 42.616 117.987 30.15 150 30.15zm64.16 202.918c-16.929 0-31.725-9.166-39.641-22.828l-.039-.038c-3.92-6.745-6.168-14.604-6.168-22.982 0-3.977.519-7.859 1.46-11.548a45.305 45.305 0 014.747-11.472 45.045 45.045 0 017.647-9.78 41.566 41.566 0 015.285-4.42c7.513-5.438 16.736-8.608 26.709-8.608.02-.02.038-.039.038-.058a73.423 73.423 0 009.896-34.03l.02-.25c.038-.961.057-1.922.057-2.883 0-38.44-29.238-70.014-66.669-73.782 29.19 1.79 56.386 14.005 77.244 34.865C257.384 87.89 269.85 117.987 269.85 150c0 22.879-6.37 44.777-18.267 63.674-8.29 11.737-21.964 19.394-37.423 19.394z"/>
</svg>
